<svg xmlns="http://www.w3.org/2000/svg" xmlns:xlink="http://www.w3.org/1999/xlink" width="2000" zoomAndPan="magnify" viewBox="0 0 1500 1499.999933" height="2000" preserveAspectRatio="xMidYMid meet" version="1.0"><defs><clipPath id="19fb0261a9"><path d="M 49.757812 257.246094 L 1440.257812 257.246094 L 1440.257812 1233.746094 L 49.757812 1233.746094 Z M 49.757812 257.246094 " clip-rule="nonzero"/></clipPath><clipPath id="34db032a5e"><path d="M 49.753906 461.859375 L 1438.003906 461.859375 L 1438.003906 1235.109375 L 49.753906 1235.109375 Z M 49.753906 461.859375 " clip-rule="nonzero"/></clipPath><clipPath id="09ab017d2e"><path d="M 50.878906 936.609375 L 1451.878906 936.609375 L 1451.878906 1235.859375 L 50.878906 1235.859375 Z M 50.878906 936.609375 " clip-rule="nonzero"/></clipPath></defs><g clip-path="url(#19fb0261a9)"><path fill="#6b169f" d="M 59.929688 1049.699219 L 87.859375 1021.757812 L 115.785156 1049.699219 L 87.859375 1077.640625 Z M 243.015625 1077.640625 L 270.945312 1049.699219 L 243.015625 1021.757812 L 215.085938 1049.699219 Z M 165.4375 1077.640625 L 193.367188 1049.699219 L 165.4375 1021.757812 L 137.507812 1049.699219 Z M 471.914062 995.019531 C 480.835938 986.09375 489.753906 977.164062 498.671875 968.238281 L 475.753906 945.308594 L 448.988281 972.085938 Z M 398.175781 998.859375 L 424.9375 972.085938 L 398.175781 945.308594 L 371.410156 972.085938 Z M 320.59375 1077.640625 L 348.523438 1049.699219 L 320.59375 1021.757812 L 292.667969 1049.699219 Z M 243.015625 1156.417969 L 272.109375 1127.3125 L 243.015625 1098.207031 L 213.925781 1127.3125 Z M 393.765625 1073.226562 C 403.074219 1063.914062 412.382812 1054.597656 421.691406 1045.28125 L 398.175781 1021.757812 L 370.246094 1049.699219 Z M 550.050781 916.800781 C 558.582031 908.261719 567.113281 899.71875 575.644531 891.179688 L 553.332031 868.859375 L 527.730469 894.472656 Z M 87.859375 998.859375 L 114.621094 972.085938 L 87.859375 945.308594 L 61.09375 972.085938 Z M 165.4375 1156.417969 L 194.53125 1127.3125 L 165.4375 1098.207031 L 136.34375 1127.3125 Z M 475.753906 920.082031 L 501.355469 894.472656 L 475.753906 868.859375 L 450.152344 894.472656 Z M 398.175781 920.082031 L 423.777344 894.472656 L 398.175781 868.859375 L 372.574219 894.472656 Z M 243.015625 998.859375 L 269.78125 972.085938 L 243.015625 945.308594 L 216.25 972.085938 Z M 10.277344 998.859375 L 37.042969 972.085938 L 10.277344 945.308594 L -16.484375 972.085938 Z M 320.59375 998.859375 L 347.359375 972.085938 L 320.59375 945.308594 L 293.832031 972.085938 Z M 165.4375 998.859375 L 192.203125 972.085938 L 165.4375 945.308594 L 138.671875 972.085938 Z M 1406.703125 1077.640625 L 1434.632812 1049.699219 L 1406.703125 1021.757812 L 1378.773438 1049.699219 Z M 1018.808594 762.527344 L 1042.082031 739.242188 L 1018.808594 715.957031 L 995.535156 739.242188 Z M 863.648438 762.527344 L 886.921875 739.242188 L 863.648438 715.957031 L 840.375 739.242188 Z M 315.613281 1151.433594 C 325.3125 1141.730469 335.007812 1132.027344 344.703125 1122.324219 L 320.59375 1098.207031 L 291.503906 1127.3125 Z M 1096.386719 762.527344 L 1119.660156 739.242188 L 1096.386719 715.957031 L 1073.113281 739.242188 Z M 706.28125 760.316406 C 714.03125 752.546875 721.785156 744.785156 729.539062 737.015625 L 708.492188 715.957031 L 685.21875 739.242188 Z M 786.070312 762.527344 L 809.34375 739.242188 L 786.070312 715.957031 L 762.796875 739.242188 Z M 553.332031 762.527344 L 576.605469 739.242188 L 553.332031 715.957031 L 530.058594 739.242188 Z M 630.910156 762.527344 L 654.1875 739.242188 L 630.910156 715.957031 L 607.636719 739.242188 Z M 1251.546875 762.527344 L 1274.820312 739.242188 L 1251.546875 715.957031 L 1228.273438 739.242188 Z M 941.230469 762.527344 L 964.503906 739.242188 L 941.230469 715.957031 L 917.953125 739.242188 Z M 1173.964844 762.527344 L 1197.238281 739.242188 L 1173.964844 715.957031 L 1150.691406 739.242188 Z M 1329.125 1077.640625 L 1357.054688 1049.699219 L 1329.125 1021.757812 L 1301.195312 1049.699219 Z M 1251.546875 1156.417969 L 1280.636719 1127.3125 L 1251.546875 1098.207031 L 1222.453125 1127.3125 Z M 237.464844 1229.640625 C 247.546875 1219.546875 257.632812 1209.457031 267.714844 1199.367188 L 243.015625 1174.65625 L 212.761719 1204.925781 Z M 1329.125 1156.417969 L 1358.214844 1127.3125 L 1329.125 1098.207031 L 1300.03125 1127.3125 Z M 1173.964844 1077.640625 L 1201.894531 1049.699219 L 1173.964844 1021.757812 L 1146.039062 1049.699219 Z M 1251.546875 1077.640625 L 1279.472656 1049.699219 L 1251.546875 1021.757812 L 1223.617188 1049.699219 Z M 320.59375 920.082031 L 346.195312 894.472656 L 320.59375 868.859375 L 294.996094 894.472656 Z M 1096.683594 1077.34375 L 1124.316406 1049.699219 L 1096.386719 1021.757812 L 1068.757812 1049.398438 C 1078.066406 1058.714844 1087.375 1068.027344 1096.683594 1077.34375 Z M 1251.546875 920.082031 L 1277.148438 894.472656 L 1251.546875 868.859375 L 1225.945312 894.472656 Z M 243.015625 920.082031 L 268.617188 894.472656 L 243.015625 868.859375 L 217.414062 894.472656 Z M 1406.703125 920.082031 L 1432.304688 894.472656 L 1406.703125 868.859375 L 1381.101562 894.472656 Z M 1096.386719 920.082031 L 1121.988281 894.472656 L 1096.386719 868.859375 L 1070.785156 894.472656 Z M 1329.125 920.082031 L 1354.726562 894.472656 L 1329.125 868.859375 L 1303.523438 894.472656 Z M 1406.703125 998.859375 L 1433.46875 972.085938 L 1406.703125 945.308594 L 1379.9375 972.085938 Z M 941.230469 920.082031 L 966.828125 894.472656 L 941.230469 868.859375 L 915.628906 894.472656 Z M 1018.808594 920.082031 L 1044.410156 894.472656 L 1018.808594 868.859375 L 993.207031 894.472656 Z M 1251.546875 841.304688 L 1275.984375 816.855469 L 1251.546875 792.410156 L 1227.109375 816.855469 Z M 863.648438 841.304688 L 888.085938 816.855469 L 863.648438 792.410156 L 839.210938 816.855469 Z M 1484.28125 998.859375 L 1511.046875 972.085938 L 1484.28125 945.308594 L 1457.519531 972.085938 Z M 1173.964844 841.304688 L 1198.402344 816.855469 L 1173.964844 792.410156 L 1149.527344 816.855469 Z M 1329.125 841.304688 L 1353.5625 816.855469 L 1329.125 792.410156 L 1304.6875 816.855469 Z M 1096.386719 841.304688 L 1120.824219 816.855469 L 1096.386719 792.410156 L 1071.949219 816.855469 Z M 941.230469 841.304688 L 965.664062 816.855469 L 941.230469 792.410156 L 916.789062 816.855469 Z M 1018.808594 841.304688 L 1043.246094 816.855469 L 1018.808594 792.410156 L 994.371094 816.855469 Z M 1173.964844 920.082031 L 1199.566406 894.472656 L 1173.964844 868.859375 L 1148.363281 894.472656 Z M 553.332031 841.304688 L 577.769531 816.855469 L 553.332031 792.410156 L 528.894531 816.855469 Z M 475.753906 841.304688 L 500.191406 816.855469 L 475.753906 792.410156 L 451.316406 816.855469 Z M 398.175781 841.304688 L 422.613281 816.855469 L 398.175781 792.410156 L 373.738281 816.855469 Z M 1329.125 998.859375 L 1355.890625 972.085938 L 1329.125 945.308594 L 1302.359375 972.085938 Z M 628.175781 838.570312 C 636.320312 830.414062 644.457031 822.257812 652.597656 814.101562 L 630.910156 792.410156 L 606.472656 816.855469 Z M 87.859375 920.082031 L 113.457031 894.472656 L 87.859375 868.859375 L 62.257812 894.472656 Z M 165.4375 841.304688 L 189.875 816.855469 L 165.4375 792.410156 L 141 816.855469 Z M 165.4375 920.082031 L 191.039062 894.472656 L 165.4375 868.859375 L 139.835938 894.472656 Z M 320.59375 841.304688 L 345.03125 816.855469 L 320.59375 792.410156 L 296.15625 816.855469 Z M 243.015625 841.304688 L 267.453125 816.855469 L 243.015625 792.410156 L 218.578125 816.855469 Z M 1096.386719 998.859375 L 1123.152344 972.085938 L 1096.386719 945.308594 L 1069.621094 972.085938 Z M 1018.808594 998.859375 L 1045.574219 972.085938 L 1018.808594 945.308594 L 992.042969 972.085938 Z M 1251.546875 998.859375 L 1278.308594 972.085938 L 1251.546875 945.308594 L 1224.78125 972.085938 Z M 1173.964844 998.859375 L 1200.730469 972.085938 L 1173.964844 945.308594 L 1147.203125 972.085938 Z M 1252.992188 1233.746094 L 1281.800781 1204.925781 L 1251.546875 1174.65625 L 1222.738281 1203.476562 C 1232.824219 1213.566406 1242.90625 1223.65625 1252.992188 1233.746094 Z M 475.753906 762.527344 L 499.027344 739.242188 L 475.753906 715.957031 L 452.480469 739.242188 Z M 1174.835938 1155.546875 L 1203.058594 1127.3125 L 1173.964844 1098.207031 L 1145.746094 1126.4375 C 1155.445312 1136.140625 1165.140625 1145.84375 1174.835938 1155.546875 Z M 630.910156 526.195312 L 650.695312 506.402344 L 630.910156 486.609375 L 611.128906 506.402344 Z M 553.332031 604.972656 L 574.277344 584.015625 L 553.332031 563.058594 L 532.386719 584.015625 Z M 398.175781 604.972656 L 419.121094 584.015625 L 398.175781 563.058594 L 377.226562 584.015625 Z M 708.492188 604.972656 L 729.4375 584.015625 L 708.492188 563.058594 L 687.542969 584.015625 Z M 630.910156 604.972656 L 651.859375 584.015625 L 630.910156 563.058594 L 609.964844 584.015625 Z M 1018.808594 683.75 L 1040.917969 661.628906 L 1018.808594 639.507812 L 996.699219 661.628906 Z M 1173.964844 683.75 L 1196.078125 661.628906 L 1173.964844 639.507812 L 1151.855469 661.628906 Z M 1096.386719 683.75 L 1118.496094 661.628906 L 1096.386719 639.507812 L 1074.277344 661.628906 Z M 475.753906 604.972656 L 496.699219 584.015625 L 475.753906 563.058594 L 454.808594 584.015625 Z M 786.070312 604.972656 L 807.015625 584.015625 L 786.070312 563.058594 L 765.125 584.015625 Z M 1018.808594 604.972656 L 1039.753906 584.015625 L 1018.808594 563.058594 L 997.863281 584.015625 Z M 475.753906 526.195312 L 495.535156 506.402344 L 475.753906 486.609375 L 455.972656 506.402344 Z M 553.332031 526.195312 L 573.117188 506.402344 L 553.332031 486.609375 L 533.550781 506.402344 Z M 708.492188 526.195312 L 728.273438 506.402344 L 708.492188 486.609375 L 688.707031 506.402344 Z M 1096.386719 604.972656 L 1117.332031 584.015625 L 1096.386719 563.058594 L 1075.441406 584.015625 Z M 863.648438 604.972656 L 884.597656 584.015625 L 863.648438 563.058594 L 842.703125 584.015625 Z M 941.230469 604.972656 L 962.175781 584.015625 L 941.230469 563.058594 L 920.28125 584.015625 Z M 941.230469 683.75 L 963.339844 661.628906 L 941.230469 639.507812 L 919.117188 661.628906 Z M 708.492188 683.75 L 730.601562 661.628906 L 708.492188 639.507812 L 686.382812 661.628906 Z M 630.910156 683.75 L 653.023438 661.628906 L 630.910156 639.507812 L 608.800781 661.628906 Z M 786.070312 683.75 L 808.179688 661.628906 L 786.070312 639.507812 L 763.960938 661.628906 Z M 398.175781 762.527344 L 421.449219 739.242188 L 398.175781 715.957031 L 374.902344 739.242188 Z M 863.648438 683.75 L 885.757812 661.628906 L 863.648438 639.507812 L 841.539062 661.628906 Z M 553.332031 683.75 L 575.441406 661.628906 L 553.332031 639.507812 L 531.222656 661.628906 Z M 398.175781 683.75 L 420.285156 661.628906 L 398.175781 639.507812 L 376.0625 661.628906 Z M 475.753906 683.75 L 497.863281 661.628906 L 475.753906 639.507812 L 453.644531 661.628906 Z M 320.59375 683.75 L 342.707031 661.628906 L 320.59375 639.507812 L 298.484375 661.628906 Z M 243.015625 762.527344 L 266.289062 739.242188 L 243.015625 715.957031 L 219.742188 739.242188 Z M 708.492188 257.261719 L 692.199219 273.5625 L 708.492188 289.859375 L 724.78125 273.5625 Z M 320.59375 762.527344 L 343.867188 739.242188 L 320.59375 715.957031 L 297.320312 739.242188 Z M 941.230469 447.414062 L 959.847656 428.789062 L 941.230469 410.160156 L 922.609375 428.789062 Z M 630.910156 447.414062 L 649.53125 428.789062 L 630.910156 410.160156 L 612.292969 428.789062 Z M 786.070312 289.859375 L 802.363281 273.5625 L 786.070312 257.261719 L 769.777344 273.5625 Z M 708.492188 447.414062 L 727.109375 428.789062 L 708.492188 410.160156 L 689.871094 428.789062 Z M 941.230469 526.195312 L 961.011719 506.402344 L 941.230469 486.609375 L 921.445312 506.402344 Z M 863.648438 526.195312 L 883.433594 506.402344 L 863.648438 486.609375 L 843.867188 506.402344 Z M 1018.808594 526.195312 L 1038.589844 506.402344 L 1018.808594 486.609375 L 999.023438 506.402344 Z M 786.070312 447.414062 L 804.6875 428.789062 L 786.070312 410.160156 L 767.453125 428.789062 Z M 553.332031 447.414062 L 571.953125 428.789062 L 553.332031 410.160156 L 534.714844 428.789062 Z M 786.070312 368.636719 L 803.527344 351.175781 L 786.070312 333.710938 L 768.613281 351.175781 Z M 863.648438 368.636719 L 881.105469 351.175781 L 863.648438 333.710938 L 846.195312 351.175781 Z M 708.492188 368.636719 L 725.945312 351.175781 L 708.492188 333.710938 L 691.035156 351.175781 Z M 786.070312 526.195312 L 805.851562 506.402344 L 786.070312 486.609375 L 766.289062 506.402344 Z M 630.910156 368.636719 L 648.367188 351.175781 L 630.910156 333.710938 L 613.457031 351.175781 Z M 863.648438 447.414062 L 882.269531 428.789062 L 863.648438 410.160156 L 845.03125 428.789062 Z M 863.648438 447.414062 " fill-opacity="1" fill-rule="nonzero"/></g><g clip-path="url(#34db032a5e)"><path fill="#1800ad" d="M 59.945312 1051.109375 L 87.878906 1023.175781 L 115.8125 1051.109375 L 87.878906 1079.042969 Z M 243.0625 1079.042969 L 270.996094 1051.109375 L 243.0625 1023.175781 L 215.132812 1051.109375 Z M 165.472656 1079.042969 L 193.40625 1051.109375 L 165.472656 1023.175781 L 137.539062 1051.109375 Z M 472.003906 996.449219 C 480.921875 987.523438 489.84375 978.597656 498.765625 969.671875 L 475.839844 946.75 L 449.070312 973.519531 Z M 398.25 1000.289062 L 425.019531 973.519531 L 398.25 946.75 L 371.480469 973.519531 Z M 320.65625 1079.042969 L 348.589844 1051.109375 L 320.65625 1023.175781 L 292.722656 1051.109375 Z M 243.0625 1157.800781 L 272.160156 1128.703125 L 243.0625 1099.605469 L 213.96875 1128.703125 Z M 393.839844 1074.632812 C 403.148438 1065.320312 412.457031 1056.007812 421.769531 1046.695312 L 398.25 1023.175781 L 370.316406 1051.109375 Z M 550.152344 918.25 C 558.683594 909.710938 567.214844 901.171875 575.75 892.636719 L 553.433594 870.320312 L 527.828125 895.925781 Z M 87.878906 1000.289062 L 114.648438 973.519531 L 87.878906 946.75 L 61.109375 973.519531 Z M 165.472656 1157.800781 L 194.570312 1128.703125 L 165.472656 1099.605469 L 136.375 1128.703125 Z M 475.839844 921.53125 L 501.445312 895.925781 L 475.839844 870.320312 L 450.234375 895.925781 Z M 398.25 921.53125 L 423.855469 895.925781 L 398.25 870.320312 L 372.644531 895.925781 Z M 243.0625 1000.289062 L 269.832031 973.519531 L 243.0625 946.75 L 216.296875 973.519531 Z M 10.289062 1000.289062 L 37.058594 973.519531 L 10.289062 946.75 L -16.480469 973.519531 Z M 320.65625 1000.289062 L 347.425781 973.519531 L 320.65625 946.75 L 293.886719 973.519531 Z M 165.472656 1000.289062 L 192.242188 973.519531 L 165.472656 946.75 L 138.703125 973.519531 Z M 1406.949219 1079.042969 L 1434.882812 1051.109375 L 1406.949219 1023.175781 L 1379.015625 1051.109375 Z M 1018.988281 764.019531 L 1042.265625 740.742188 L 1018.988281 717.464844 L 995.710938 740.742188 Z M 863.800781 764.019531 L 887.082031 740.742188 L 863.800781 717.464844 L 840.523438 740.742188 Z M 315.675781 1152.816406 C 325.371094 1143.117188 335.070312 1133.417969 344.769531 1123.71875 L 320.65625 1099.605469 L 291.558594 1128.703125 Z M 1096.578125 764.019531 L 1119.855469 740.742188 L 1096.578125 717.464844 L 1073.300781 740.742188 Z M 706.40625 761.808594 C 714.160156 754.042969 721.917969 746.28125 729.667969 738.515625 L 708.617188 717.464844 L 685.339844 740.742188 Z M 786.210938 764.019531 L 809.488281 740.742188 L 786.210938 717.464844 L 762.933594 740.742188 Z M 553.433594 764.019531 L 576.710938 740.742188 L 553.433594 717.464844 L 530.15625 740.742188 Z M 631.027344 764.019531 L 654.304688 740.742188 L 631.027344 717.464844 L 607.75 740.742188 Z M 1251.765625 764.019531 L 1275.042969 740.742188 L 1251.765625 717.464844 L 1228.484375 740.742188 Z M 941.394531 764.019531 L 964.671875 740.742188 L 941.394531 717.464844 L 918.117188 740.742188 Z M 1174.171875 764.019531 L 1197.449219 740.742188 L 1174.171875 717.464844 L 1150.894531 740.742188 Z M 1329.355469 1079.042969 L 1357.289062 1051.109375 L 1329.355469 1023.175781 L 1301.421875 1051.109375 Z M 1251.765625 1157.800781 L 1280.859375 1128.703125 L 1251.765625 1099.605469 L 1222.667969 1128.703125 Z M 237.511719 1231.003906 C 247.597656 1220.914062 257.683594 1210.824219 267.769531 1200.738281 L 243.0625 1176.035156 L 212.804688 1206.296875 Z M 1329.355469 1157.800781 L 1358.453125 1128.703125 L 1329.355469 1099.605469 L 1300.257812 1128.703125 Z M 1174.171875 1079.042969 L 1202.105469 1051.109375 L 1174.171875 1023.175781 L 1146.238281 1051.109375 Z M 1251.765625 1079.042969 L 1279.695312 1051.109375 L 1251.765625 1023.175781 L 1223.832031 1051.109375 Z M 320.65625 921.53125 L 346.261719 895.925781 L 320.65625 870.320312 L 295.050781 895.925781 Z M 1096.875 1078.746094 L 1124.511719 1051.109375 L 1096.578125 1023.175781 L 1068.945312 1050.8125 C 1078.253906 1060.125 1087.566406 1069.4375 1096.875 1078.746094 Z M 1251.765625 921.53125 L 1277.371094 895.925781 L 1251.765625 870.320312 L 1226.160156 895.925781 Z M 243.0625 921.53125 L 268.667969 895.925781 L 243.0625 870.320312 L 217.457031 895.925781 Z M 1406.949219 921.53125 L 1432.554688 895.925781 L 1406.949219 870.320312 L 1381.34375 895.925781 Z M 1096.578125 921.53125 L 1122.183594 895.925781 L 1096.578125 870.320312 L 1070.972656 895.925781 Z M 1329.355469 921.53125 L 1354.960938 895.925781 L 1329.355469 870.320312 L 1303.75 895.925781 Z M 1406.949219 1000.289062 L 1433.71875 973.519531 L 1406.949219 946.75 L 1380.179688 973.519531 Z M 941.394531 921.53125 L 967 895.925781 L 941.394531 870.320312 L 915.789062 895.925781 Z M 1018.988281 921.53125 L 1044.59375 895.925781 L 1018.988281 870.320312 L 993.382812 895.925781 Z M 1251.765625 842.773438 L 1276.207031 818.332031 L 1251.765625 793.890625 L 1227.320312 818.332031 Z M 863.800781 842.773438 L 888.246094 818.332031 L 863.800781 793.890625 L 839.359375 818.332031 Z M 1484.539062 1000.289062 L 1511.308594 973.519531 L 1484.539062 946.75 L 1457.769531 973.519531 Z M 1174.171875 842.773438 L 1198.613281 818.332031 L 1174.171875 793.890625 L 1149.730469 818.332031 Z M 1329.355469 842.773438 L 1353.796875 818.332031 L 1329.355469 793.890625 L 1304.914062 818.332031 Z M 1096.578125 842.773438 L 1121.019531 818.332031 L 1096.578125 793.890625 L 1072.136719 818.332031 Z M 941.394531 842.773438 L 965.835938 818.332031 L 941.394531 793.890625 L 916.953125 818.332031 Z M 1018.988281 842.773438 L 1043.429688 818.332031 L 1018.988281 793.890625 L 994.546875 818.332031 Z M 1174.171875 921.53125 L 1199.777344 895.925781 L 1174.171875 870.320312 L 1148.566406 895.925781 Z M 553.433594 842.773438 L 577.875 818.332031 L 553.433594 793.890625 L 528.992188 818.332031 Z M 475.839844 842.773438 L 500.28125 818.332031 L 475.839844 793.890625 L 451.398438 818.332031 Z M 398.25 842.773438 L 422.691406 818.332031 L 398.25 793.890625 L 373.808594 818.332031 Z M 1329.355469 1000.289062 L 1356.125 973.519531 L 1329.355469 946.75 L 1302.585938 973.519531 Z M 628.292969 840.039062 C 636.433594 831.886719 644.574219 823.734375 652.714844 815.582031 L 631.027344 793.890625 L 606.585938 818.332031 Z M 87.878906 921.53125 L 113.484375 895.925781 L 87.878906 870.320312 L 62.273438 895.925781 Z M 165.472656 842.773438 L 189.914062 818.332031 L 165.472656 793.890625 L 141.03125 818.332031 Z M 165.472656 921.53125 L 191.078125 895.925781 L 165.472656 870.320312 L 139.867188 895.925781 Z M 320.65625 842.773438 L 345.097656 818.332031 L 320.65625 793.890625 L 296.214844 818.332031 Z M 243.0625 842.773438 L 267.507812 818.332031 L 243.0625 793.890625 L 218.621094 818.332031 Z M 1096.578125 1000.289062 L 1123.347656 973.519531 L 1096.578125 946.75 L 1069.808594 973.519531 Z M 1018.988281 1000.289062 L 1045.757812 973.519531 L 1018.988281 946.75 L 992.21875 973.519531 Z M 1251.765625 1000.289062 L 1278.53125 973.519531 L 1251.765625 946.75 L 1224.996094 973.519531 Z M 1174.171875 1000.289062 L 1200.941406 973.519531 L 1174.171875 946.75 L 1147.402344 973.519531 Z M 1253.210938 1235.109375 L 1282.023438 1206.296875 L 1251.765625 1176.035156 L 1222.953125 1204.84375 C 1233.039062 1214.933594 1243.125 1225.019531 1253.210938 1235.109375 Z M 475.839844 764.019531 L 499.117188 740.742188 L 475.839844 717.464844 L 452.5625 740.742188 Z M 1175.042969 1156.929688 L 1203.269531 1128.703125 L 1174.171875 1099.605469 L 1145.949219 1127.828125 C 1155.644531 1137.527344 1165.34375 1147.230469 1175.042969 1156.929688 Z M 631.027344 527.75 L 650.8125 507.964844 L 631.027344 488.179688 L 611.238281 507.964844 Z M 553.433594 606.507812 L 574.382812 585.558594 L 553.433594 564.605469 L 532.484375 585.558594 Z M 398.25 606.507812 L 419.199219 585.558594 L 398.25 564.605469 L 377.300781 585.558594 Z M 708.617188 606.507812 L 729.566406 585.558594 L 708.617188 564.605469 L 687.667969 585.558594 Z M 631.027344 606.507812 L 651.976562 585.558594 L 631.027344 564.605469 L 610.074219 585.558594 Z M 1018.988281 685.261719 L 1041.101562 663.148438 L 1018.988281 641.035156 L 996.875 663.148438 Z M 1174.171875 685.261719 L 1196.285156 663.148438 L 1174.171875 641.035156 L 1152.058594 663.148438 Z M 1096.578125 685.261719 L 1118.691406 663.148438 L 1096.578125 641.035156 L 1074.464844 663.148438 Z M 475.839844 606.507812 L 496.789062 585.558594 L 475.839844 564.605469 L 454.890625 585.558594 Z M 786.210938 606.507812 L 807.160156 585.558594 L 786.210938 564.605469 L 765.261719 585.558594 Z M 1018.988281 606.507812 L 1039.9375 585.558594 L 1018.988281 564.605469 L 998.035156 585.558594 Z M 475.839844 527.75 L 495.628906 507.964844 L 475.839844 488.179688 L 456.054688 507.964844 Z M 553.433594 527.75 L 573.21875 507.964844 L 553.433594 488.179688 L 533.648438 507.964844 Z M 708.617188 527.75 L 728.402344 507.964844 L 708.617188 488.179688 L 688.832031 507.964844 Z M 1096.578125 606.507812 L 1117.527344 585.558594 L 1096.578125 564.605469 L 1075.628906 585.558594 Z M 863.800781 606.507812 L 884.753906 585.558594 L 863.800781 564.605469 L 842.851562 585.558594 Z M 941.394531 606.507812 L 962.34375 585.558594 L 941.394531 564.605469 L 920.445312 585.558594 Z M 941.394531 685.261719 L 963.507812 663.148438 L 941.394531 641.035156 L 919.28125 663.148438 Z M 708.617188 685.261719 L 730.730469 663.148438 L 708.617188 641.035156 L 686.503906 663.148438 Z M 631.027344 685.261719 L 653.140625 663.148438 L 631.027344 641.035156 L 608.910156 663.148438 Z M 786.210938 685.261719 L 808.324219 663.148438 L 786.210938 641.035156 L 764.097656 663.148438 Z M 398.25 764.019531 L 421.527344 740.742188 L 398.25 717.464844 L 374.972656 740.742188 Z M 863.800781 685.261719 L 885.917969 663.148438 L 863.800781 641.035156 L 841.6875 663.148438 Z M 553.433594 685.261719 L 575.546875 663.148438 L 553.433594 641.035156 L 531.320312 663.148438 Z M 398.25 685.261719 L 420.363281 663.148438 L 398.25 641.035156 L 376.136719 663.148438 Z M 475.839844 685.261719 L 497.953125 663.148438 L 475.839844 641.035156 L 453.726562 663.148438 Z M 320.65625 685.261719 L 342.769531 663.148438 L 320.65625 641.035156 L 298.542969 663.148438 Z M 243.0625 764.019531 L 266.34375 740.742188 L 243.0625 717.464844 L 219.785156 740.742188 Z M 708.617188 258.894531 L 692.324219 275.1875 L 708.617188 291.480469 L 724.914062 275.1875 Z M 320.65625 764.019531 L 343.933594 740.742188 L 320.65625 717.464844 L 297.378906 740.742188 Z M 941.394531 448.996094 L 960.015625 430.371094 L 941.394531 411.75 L 922.773438 430.371094 Z M 631.027344 448.996094 L 649.648438 430.371094 L 631.027344 411.75 L 612.402344 430.371094 Z M 786.210938 291.480469 L 802.503906 275.1875 L 786.210938 258.894531 L 769.914062 275.1875 Z M 708.617188 448.996094 L 727.238281 430.371094 L 708.617188 411.75 L 689.996094 430.371094 Z M 941.394531 527.75 L 961.179688 507.964844 L 941.394531 488.179688 L 921.609375 507.964844 Z M 863.800781 527.75 L 883.589844 507.964844 L 863.800781 488.179688 L 844.015625 507.964844 Z M 1018.988281 527.75 L 1038.773438 507.964844 L 1018.988281 488.179688 L 999.199219 507.964844 Z M 786.210938 448.996094 L 804.832031 430.371094 L 786.210938 411.75 L 767.589844 430.371094 Z M 553.433594 448.996094 L 572.054688 430.371094 L 553.433594 411.75 L 534.8125 430.371094 Z M 786.210938 370.238281 L 803.667969 352.78125 L 786.210938 335.320312 L 768.753906 352.78125 Z M 863.800781 370.238281 L 881.261719 352.78125 L 863.800781 335.320312 L 846.34375 352.78125 Z M 708.617188 370.238281 L 726.078125 352.78125 L 708.617188 335.320312 L 691.160156 352.78125 Z M 786.210938 527.75 L 805.996094 507.964844 L 786.210938 488.179688 L 766.425781 507.964844 Z M 631.027344 370.238281 L 648.484375 352.78125 L 631.027344 335.320312 L 613.566406 352.78125 Z M 863.800781 448.996094 L 882.425781 430.371094 L 863.800781 411.75 L 845.179688 430.371094 Z M 863.800781 448.996094 " fill-opacity="1" fill-rule="nonzero"/></g><g clip-path="url(#09ab017d2e)"><path fill="#000000" d="M 61.074219 1051.863281 L 89.007812 1023.929688 L 116.941406 1051.863281 L 89.007812 1079.796875 Z M 244.191406 1079.796875 L 272.125 1051.863281 L 244.191406 1023.929688 L 216.257812 1051.863281 Z M 166.601562 1079.796875 L 194.535156 1051.863281 L 166.601562 1023.929688 L 138.667969 1051.863281 Z M 473.128906 997.199219 C 482.050781 988.273438 490.972656 979.347656 499.890625 970.421875 L 476.96875 947.5 L 450.199219 974.269531 Z M 399.375 1001.039062 L 426.144531 974.269531 L 399.375 947.5 L 372.609375 974.269531 Z M 321.785156 1079.796875 L 349.71875 1051.863281 L 321.785156 1023.929688 L 293.851562 1051.863281 Z M 244.191406 1158.550781 L 273.289062 1129.453125 L 244.191406 1100.355469 L 215.09375 1129.453125 Z M 394.964844 1075.386719 C 404.277344 1066.074219 413.585938 1056.761719 422.894531 1047.449219 L 399.375 1023.929688 L 371.445312 1051.863281 Z M 551.28125 919 C 559.8125 910.460938 568.34375 901.925781 576.875 893.386719 L 554.5625 871.070312 L 528.957031 896.675781 Z M 89.007812 1001.039062 L 115.777344 974.269531 L 89.007812 947.5 L 62.238281 974.269531 Z M 166.601562 1158.550781 L 195.699219 1129.453125 L 166.601562 1100.355469 L 137.503906 1129.453125 Z M 476.96875 922.28125 L 502.574219 896.675781 L 476.96875 871.070312 L 451.363281 896.675781 Z M 399.375 922.28125 L 424.980469 896.675781 L 399.375 871.070312 L 373.769531 896.675781 Z M 244.191406 1001.039062 L 270.960938 974.269531 L 244.191406 947.5 L 217.421875 974.269531 Z M 11.414062 1001.039062 L 38.183594 974.269531 L 11.414062 947.5 L -15.355469 974.269531 Z M 321.785156 1001.039062 L 348.554688 974.269531 L 321.785156 947.5 L 295.015625 974.269531 Z M 166.601562 1001.039062 L 193.371094 974.269531 L 166.601562 947.5 L 139.832031 974.269531 Z M 1408.078125 1079.796875 L 1436.007812 1051.863281 L 1408.078125 1023.929688 L 1380.144531 1051.863281 Z M 1020.113281 764.769531 L 1043.390625 741.492188 L 1020.113281 718.214844 L 996.835938 741.492188 Z M 864.929688 764.769531 L 888.207031 741.492188 L 864.929688 718.214844 L 841.652344 741.492188 Z M 316.804688 1153.570312 C 326.5 1143.867188 336.199219 1134.167969 345.894531 1124.46875 L 321.785156 1100.355469 L 292.6875 1129.453125 Z M 1097.707031 764.769531 L 1120.984375 741.492188 L 1097.707031 718.214844 L 1074.429688 741.492188 Z M 707.535156 762.558594 C 715.289062 754.792969 723.042969 747.03125 730.796875 739.265625 L 709.746094 718.214844 L 686.46875 741.492188 Z M 787.339844 764.769531 L 810.617188 741.492188 L 787.339844 718.214844 L 764.0625 741.492188 Z M 554.5625 764.769531 L 577.839844 741.492188 L 554.5625 718.214844 L 531.285156 741.492188 Z M 632.152344 764.769531 L 655.429688 741.492188 L 632.152344 718.214844 L 608.875 741.492188 Z M 1252.890625 764.769531 L 1276.167969 741.492188 L 1252.890625 718.214844 L 1229.613281 741.492188 Z M 942.523438 764.769531 L 965.800781 741.492188 L 942.523438 718.214844 L 919.246094 741.492188 Z M 1175.300781 764.769531 L 1198.578125 741.492188 L 1175.300781 718.214844 L 1152.023438 741.492188 Z M 1330.484375 1079.796875 L 1358.417969 1051.863281 L 1330.484375 1023.929688 L 1302.550781 1051.863281 Z M 1252.890625 1158.550781 L 1281.988281 1129.453125 L 1252.890625 1100.355469 L 1223.792969 1129.453125 Z M 238.640625 1231.753906 C 248.722656 1221.664062 258.808594 1211.578125 268.894531 1201.488281 L 244.191406 1176.785156 L 213.929688 1207.046875 Z M 1330.484375 1158.550781 L 1359.582031 1129.453125 L 1330.484375 1100.355469 L 1301.386719 1129.453125 Z M 1175.300781 1079.796875 L 1203.234375 1051.863281 L 1175.300781 1023.929688 L 1147.367188 1051.863281 Z M 1252.890625 1079.796875 L 1280.824219 1051.863281 L 1252.890625 1023.929688 L 1224.957031 1051.863281 Z M 321.785156 922.28125 L 347.390625 896.675781 L 321.785156 871.070312 L 296.179688 896.675781 Z M 1098.003906 1079.5 L 1125.640625 1051.863281 L 1097.707031 1023.929688 L 1070.074219 1051.5625 C 1079.382812 1060.875 1088.691406 1070.1875 1098.003906 1079.5 Z M 1252.890625 922.28125 L 1278.496094 896.675781 L 1252.890625 871.070312 L 1227.285156 896.675781 Z M 244.191406 922.28125 L 269.796875 896.675781 L 244.191406 871.070312 L 218.585938 896.675781 Z M 1408.078125 922.28125 L 1433.683594 896.675781 L 1408.078125 871.070312 L 1382.46875 896.675781 Z M 1097.707031 922.28125 L 1123.3125 896.675781 L 1097.707031 871.070312 L 1072.101562 896.675781 Z M 1330.484375 922.28125 L 1356.089844 896.675781 L 1330.484375 871.070312 L 1304.878906 896.675781 Z M 1408.078125 1001.039062 L 1434.84375 974.269531 L 1408.078125 947.5 L 1381.308594 974.269531 Z M 942.523438 922.28125 L 968.128906 896.675781 L 942.523438 871.070312 L 916.917969 896.675781 Z M 1020.113281 922.28125 L 1045.71875 896.675781 L 1020.113281 871.070312 L 994.507812 896.675781 Z M 1252.890625 843.527344 L 1277.332031 819.085938 L 1252.890625 794.644531 L 1228.449219 819.085938 Z M 864.929688 843.527344 L 889.371094 819.085938 L 864.929688 794.644531 L 840.488281 819.085938 Z M 1485.667969 1001.039062 L 1512.4375 974.269531 L 1485.667969 947.5 L 1458.898438 974.269531 Z M 1175.300781 843.527344 L 1199.742188 819.085938 L 1175.300781 794.644531 L 1150.859375 819.085938 Z M 1330.484375 843.527344 L 1354.925781 819.085938 L 1330.484375 794.644531 L 1306.042969 819.085938 Z M 1097.707031 843.527344 L 1122.148438 819.085938 L 1097.707031 794.644531 L 1073.265625 819.085938 Z M 942.523438 843.527344 L 966.964844 819.085938 L 942.523438 794.644531 L 918.082031 819.085938 Z M 1020.113281 843.527344 L 1044.554688 819.085938 L 1020.113281 794.644531 L 995.671875 819.085938 Z M 1175.300781 922.28125 L 1200.90625 896.675781 L 1175.300781 871.070312 L 1149.695312 896.675781 Z M 554.5625 843.527344 L 579.003906 819.085938 L 554.5625 794.644531 L 530.121094 819.085938 Z M 476.96875 843.527344 L 501.410156 819.085938 L 476.96875 794.644531 L 452.527344 819.085938 Z M 399.375 843.527344 L 423.820312 819.085938 L 399.375 794.644531 L 374.933594 819.085938 Z M 1330.484375 1001.039062 L 1357.253906 974.269531 L 1330.484375 947.5 L 1303.714844 974.269531 Z M 629.417969 840.792969 C 637.5625 832.640625 645.699219 824.484375 653.84375 816.332031 L 632.152344 794.644531 L 607.710938 819.085938 Z M 89.007812 922.28125 L 114.613281 896.675781 L 89.007812 871.070312 L 63.402344 896.675781 Z M 166.601562 843.527344 L 191.042969 819.085938 L 166.601562 794.644531 L 142.160156 819.085938 Z M 166.601562 922.28125 L 192.207031 896.675781 L 166.601562 871.070312 L 140.996094 896.675781 Z M 321.785156 843.527344 L 346.226562 819.085938 L 321.785156 794.644531 L 297.34375 819.085938 Z M 244.191406 843.527344 L 268.632812 819.085938 L 244.191406 794.644531 L 219.75 819.085938 Z M 1097.707031 1001.039062 L 1124.476562 974.269531 L 1097.707031 947.5 L 1070.9375 974.269531 Z M 1020.113281 1001.039062 L 1046.882812 974.269531 L 1020.113281 947.5 L 993.34375 974.269531 Z M 1252.890625 1001.039062 L 1279.660156 974.269531 L 1252.890625 947.5 L 1226.121094 974.269531 Z M 1175.300781 1001.039062 L 1202.070312 974.269531 L 1175.300781 947.5 L 1148.53125 974.269531 Z M 1254.339844 1235.859375 L 1283.152344 1207.046875 L 1252.890625 1176.785156 L 1224.082031 1205.597656 C 1234.167969 1215.683594 1244.253906 1225.773438 1254.339844 1235.859375 Z M 476.96875 764.769531 L 500.246094 741.492188 L 476.96875 718.214844 L 453.691406 741.492188 Z M 1176.171875 1157.679688 L 1204.398438 1129.453125 L 1175.300781 1100.355469 L 1147.074219 1128.582031 C 1156.773438 1138.28125 1166.472656 1147.980469 1176.171875 1157.679688 Z M 632.152344 528.503906 L 651.941406 508.714844 L 632.152344 488.929688 L 612.367188 508.714844 Z M 554.5625 607.257812 L 575.511719 586.308594 L 554.5625 565.359375 L 533.613281 586.308594 Z M 399.375 607.257812 L 420.328125 586.308594 L 399.375 565.359375 L 378.425781 586.308594 Z M 709.746094 607.257812 L 730.695312 586.308594 L 709.746094 565.359375 L 688.796875 586.308594 Z M 632.152344 607.257812 L 653.105469 586.308594 L 632.152344 565.359375 L 611.203125 586.308594 Z M 1020.113281 686.015625 L 1042.230469 663.902344 L 1020.113281 641.785156 L 998 663.902344 Z M 1175.300781 686.015625 L 1197.414062 663.902344 L 1175.300781 641.785156 L 1153.1875 663.902344 Z M 1097.707031 686.015625 L 1119.820312 663.902344 L 1097.707031 641.785156 L 1075.59375 663.902344 Z M 476.96875 607.257812 L 497.917969 586.308594 L 476.96875 565.359375 L 456.019531 586.308594 Z M 787.339844 607.257812 L 808.289062 586.308594 L 787.339844 565.359375 L 766.386719 586.308594 Z M 1020.113281 607.257812 L 1041.066406 586.308594 L 1020.113281 565.359375 L 999.164062 586.308594 Z M 476.96875 528.503906 L 496.753906 508.714844 L 476.96875 488.929688 L 457.183594 508.714844 Z M 554.5625 528.503906 L 574.347656 508.714844 L 554.5625 488.929688 L 534.773438 508.714844 Z M 709.746094 528.503906 L 729.53125 508.714844 L 709.746094 488.929688 L 689.960938 508.714844 Z M 1097.707031 607.257812 L 1118.65625 586.308594 L 1097.707031 565.359375 L 1076.757812 586.308594 Z M 864.929688 607.257812 L 885.878906 586.308594 L 864.929688 565.359375 L 843.980469 586.308594 Z M 942.523438 607.257812 L 963.472656 586.308594 L 942.523438 565.359375 L 921.574219 586.308594 Z M 942.523438 686.015625 L 964.636719 663.902344 L 942.523438 641.785156 L 920.410156 663.902344 Z M 709.746094 686.015625 L 731.859375 663.902344 L 709.746094 641.785156 L 687.632812 663.902344 Z M 632.152344 686.015625 L 654.265625 663.902344 L 632.152344 641.785156 L 610.039062 663.902344 Z M 787.339844 686.015625 L 809.453125 663.902344 L 787.339844 641.785156 L 765.222656 663.902344 Z M 399.375 764.769531 L 422.65625 741.492188 L 399.375 718.214844 L 376.097656 741.492188 Z M 864.929688 686.015625 L 887.042969 663.902344 L 864.929688 641.785156 L 842.816406 663.902344 Z M 554.5625 686.015625 L 576.675781 663.902344 L 554.5625 641.785156 L 532.449219 663.902344 Z M 399.375 686.015625 L 421.492188 663.902344 L 399.375 641.785156 L 377.261719 663.902344 Z M 476.96875 686.015625 L 499.082031 663.902344 L 476.96875 641.785156 L 454.855469 663.902344 Z M 321.785156 686.015625 L 343.898438 663.902344 L 321.785156 641.785156 L 299.671875 663.902344 Z M 244.191406 764.769531 L 267.46875 741.492188 L 244.191406 718.214844 L 220.914062 741.492188 Z M 709.746094 259.644531 L 693.453125 275.9375 L 709.746094 292.234375 L 726.039062 275.9375 Z M 321.785156 764.769531 L 345.0625 741.492188 L 321.785156 718.214844 L 298.507812 741.492188 Z M 942.523438 449.746094 L 961.144531 431.125 L 942.523438 412.5 L 923.902344 431.125 Z M 632.152344 449.746094 L 650.777344 431.125 L 632.152344 412.5 L 613.53125 431.125 Z M 787.339844 292.234375 L 803.632812 275.9375 L 787.339844 259.644531 L 771.042969 275.9375 Z M 709.746094 449.746094 L 728.367188 431.125 L 709.746094 412.5 L 691.125 431.125 Z M 942.523438 528.503906 L 962.308594 508.714844 L 942.523438 488.929688 L 922.738281 508.714844 Z M 864.929688 528.503906 L 884.714844 508.714844 L 864.929688 488.929688 L 845.144531 508.714844 Z M 1020.113281 528.503906 L 1039.902344 508.714844 L 1020.113281 488.929688 L 1000.328125 508.714844 Z M 787.339844 449.746094 L 805.960938 431.125 L 787.339844 412.5 L 768.714844 431.125 Z M 554.5625 449.746094 L 573.183594 431.125 L 554.5625 412.5 L 535.9375 431.125 Z M 787.339844 370.988281 L 804.796875 353.53125 L 787.339844 336.074219 L 769.878906 353.53125 Z M 864.929688 370.988281 L 882.390625 353.53125 L 864.929688 336.074219 L 847.472656 353.53125 Z M 709.746094 370.988281 L 727.203125 353.53125 L 709.746094 336.074219 L 692.289062 353.53125 Z M 787.339844 528.503906 L 807.125 508.714844 L 787.339844 488.929688 L 767.550781 508.714844 Z M 632.152344 370.988281 L 649.613281 353.53125 L 632.152344 336.074219 L 614.695312 353.53125 Z M 864.929688 449.746094 L 883.550781 431.125 L 864.929688 412.5 L 846.308594 431.125 Z M 864.929688 449.746094 " fill-opacity="1" fill-rule="nonzero"/></g></svg>